<?xml version="1.0" standalone="no"?>
<!DOCTYPE svg PUBLIC "-//W3C//DTD SVG 20010904//EN"
 "http://www.w3.org/TR/2001/REC-SVG-20010904/DTD/svg10.dtd">
<svg version="1.0" xmlns="http://www.w3.org/2000/svg"
 width="512.000000pt" height="512.000000pt" viewBox="0 0 512.000000 512.000000"
 preserveAspectRatio="xMidYMid meet">
<metadata>
Created by potrace 1.15, written by Peter Selinger 2001-2017
</metadata>
<g transform="translate(0.000000,512.000000) scale(0.100000,-0.100000)"
fill="#000000" stroke="none">
<path d="M203 4958 c-174 -172 -196 -198 -191 -231 3 -19 32 5 192 163 103
102 192 193 197 203 8 14 5 17 -17 17 -21 0 -60 -33 -181 -152z"/>
<path d="M303 4858 c-140 -139 -264 -265 -275 -281 -10 -15 -18 -37 -16 -50 3
-18 49 23 292 263 158 157 292 293 297 303 8 14 5 17 -17 17 -22 0 -75 -47
-281 -252z"/>
<path d="M402 4758 c-194 -194 -362 -365 -373 -381 -11 -15 -19 -37 -17 -50 4
-18 67 40 392 363 213 212 392 393 397 403 8 14 5 17 -18 17 -22 0 -89 -62
-381 -352z"/>
<path d="M502 4658 c-249 -249 -462 -465 -473 -481 -11 -15 -19 -37 -17 -50 4
-18 84 57 492 463 268 267 492 493 497 503 8 14 5 17 -18 17 -22 0 -104 -76
-481 -452z"/>
<path d="M602 4558 c-304 -304 -562 -565 -573 -581 -11 -15 -19 -37 -17 -50 3
-18 48 22 287 258 255 253 279 274 248 220 -19 -33 -47 -89 -62 -125 -24 -59
-48 -86 -251 -291 -179 -181 -224 -231 -224 -252 0 -15 3 -27 7 -27 4 0 96 89
205 197 109 109 198 195 198 193 0 -3 -7 -39 -16 -80 l-15 -75 -190 -191
c-150 -151 -189 -197 -189 -218 0 -14 3 -26 7 -26 4 0 87 80 185 177 l178 177
0 -64 0 -64 -185 -187 c-146 -147 -185 -192 -185 -213 0 -14 3 -26 7 -26 4 0
87 80 185 177 l178 177 0 -64 0 -64 -185 -187 c-146 -147 -185 -192 -185 -213
0 -14 3 -26 7 -26 4 0 87 80 185 177 l178 177 0 -64 0 -64 -185 -187 c-146
-147 -185 -192 -185 -213 0 -14 3 -26 7 -26 4 0 87 80 185 177 l178 177 0 -64
0 -64 -185 -187 c-146 -147 -185 -192 -185 -213 0 -14 3 -26 7 -26 4 0 87 80
185 177 l178 177 0 -64 0 -64 -185 -187 c-146 -147 -185 -192 -185 -213 0 -14
3 -26 7 -26 4 0 87 80 185 177 l178 177 0 -64 0 -64 -185 -187 c-146 -147
-185 -192 -185 -213 0 -14 3 -26 7 -26 4 0 87 80 185 177 l178 177 0 -64 0
-64 -185 -187 c-146 -147 -185 -192 -185 -213 0 -14 3 -26 7 -26 4 0 87 80
185 177 l178 177 0 -64 0 -64 -185 -187 c-146 -147 -185 -192 -185 -213 0 -14
3 -26 7 -26 4 0 87 80 185 177 l178 177 0 -64 0 -64 -185 -187 c-147 -148
-185 -192 -185 -213 0 -22 3 -25 17 -17 10 5 92 84 183 176 l165 165 5 -57 5
-58 -187 -191 c-148 -151 -188 -197 -188 -218 0 -14 3 -26 7 -26 4 0 89 81
189 181 100 99 184 177 187 172 2 -4 8 -28 12 -51 l7 -44 -201 -202 c-160
-161 -201 -208 -201 -230 0 -14 3 -26 7 -26 4 0 98 90 209 201 l201 201 17
-48 16 -48 -225 -226 c-180 -182 -225 -232 -225 -253 0 -15 3 -27 7 -27 4 0
109 102 235 227 125 125 229 225 231 222 1 -2 11 -22 20 -43 l18 -39 -255
-257 c-207 -207 -256 -262 -256 -283 0 -15 3 -27 7 -27 4 0 125 117 269 261
l261 261 22 -37 c11 -20 21 -39 21 -43 0 -3 -130 -137 -290 -297 -235 -237
-290 -296 -290 -318 0 -15 3 -27 7 -27 4 0 143 135 308 300 l301 301 27 -38
27 -38 -335 -335 c-276 -277 -335 -341 -335 -363 0 -23 3 -26 18 -18 9 5 168
161 352 345 l334 336 33 -32 33 -32 -385 -386 c-316 -317 -385 -391 -385 -413
0 -15 3 -27 7 -27 4 0 185 178 403 395 l395 394 35 -29 35 -29 -437 -438
c-361 -362 -438 -444 -438 -466 0 -15 3 -27 7 -27 4 0 210 203 458 450 l450
450 39 -26 38 -26 -243 -245 c-143 -143 -275 -266 -320 -298 -79 -56 -139
-118 -139 -145 0 -8 -50 -65 -111 -125 -130 -129 -141 -145 -104 -145 19 0 51
24 118 89 l92 88 20 -42 21 -43 -41 -43 c-39 -43 -39 -44 -16 -47 15 -2 37 8
61 27 33 27 43 30 65 21 14 -6 37 -10 51 -10 22 0 23 -3 14 -20 -9 -17 -8 -20
12 -20 13 0 34 9 48 20 19 15 41 20 88 20 60 0 62 -1 52 -20 -9 -17 -8 -20 12
-20 13 0 34 9 48 20 19 15 41 20 88 20 60 0 62 -1 52 -20 -9 -17 -8 -20 12
-20 13 0 34 9 48 20 19 15 41 20 88 20 60 0 62 -1 52 -20 -9 -17 -8 -20 12
-20 13 0 34 9 48 20 19 15 41 20 88 20 60 0 62 -1 52 -20 -9 -17 -8 -20 12
-20 13 0 34 9 48 20 19 15 41 20 88 20 60 0 62 -1 52 -20 -9 -17 -8 -20 12
-20 13 0 34 9 48 20 19 15 41 20 88 20 60 0 62 -1 52 -20 -9 -17 -8 -20 12
-20 13 0 34 9 48 20 19 15 41 20 88 20 60 0 62 -1 52 -20 -9 -17 -8 -20 12
-20 13 0 34 9 48 20 19 15 41 20 88 20 60 0 62 -1 52 -20 -9 -17 -8 -20 12
-20 13 0 34 9 48 20 19 15 41 20 88 20 60 0 62 -1 52 -20 -9 -17 -8 -20 12
-20 13 0 34 9 48 20 19 15 41 20 88 20 60 0 62 -1 52 -20 -9 -17 -8 -20 12
-20 13 0 34 9 48 20 19 15 41 20 88 20 60 0 62 -1 52 -20 -9 -17 -8 -20 12
-20 13 0 34 9 48 20 19 15 41 20 88 20 60 0 62 -1 52 -20 -9 -17 -8 -20 12
-20 13 0 34 9 48 20 19 15 41 20 88 20 60 0 62 -1 52 -20 -9 -17 -8 -20 12
-20 13 0 34 9 48 20 19 15 41 20 88 20 60 0 62 -1 52 -20 -9 -17 -8 -20 12
-20 13 0 34 9 48 20 19 15 41 20 88 20 60 0 62 -1 52 -20 -9 -17 -8 -20 12
-20 13 0 34 9 48 20 19 15 41 20 88 20 60 0 62 -1 52 -20 -9 -17 -8 -20 12
-20 13 0 34 9 48 20 19 15 41 20 88 20 60 0 62 -1 52 -20 -9 -17 -8 -20 12
-20 13 0 34 9 48 20 19 15 41 20 88 20 60 0 62 -1 52 -20 -9 -17 -8 -20 12
-20 13 0 34 9 48 20 19 15 41 20 88 20 60 0 62 -1 52 -20 -9 -17 -8 -20 12
-20 13 0 34 9 48 20 19 15 41 20 88 20 60 0 62 -1 52 -20 -9 -17 -8 -20 12
-20 13 0 34 9 48 20 17 13 41 20 72 20 26 0 59 5 74 11 26 9 27 9 13 -8 -31
-35 -31 -43 -3 -43 21 0 64 37 211 183 205 202 226 227 221 260 -3 19 -25 1
-154 -126 l-151 -148 0 63 0 63 153 156 c120 122 154 162 154 183 0 14 -3 26
-7 26 -4 0 -80 -73 -169 -162 l-163 -161 -34 29 -34 29 203 206 c162 164 204
211 204 232 0 15 -3 27 -7 27 -4 0 -105 -97 -224 -216 l-217 -217 -36 22 c-20
13 -36 25 -36 29 0 3 117 124 260 267 210 211 260 267 260 288 0 15 -3 27 -7
27 -4 0 -132 -124 -284 -276 l-277 -276 -41 23 -41 23 325 326 c267 268 325
331 325 353 0 23 -3 26 -17 18 -10 -5 -166 -158 -348 -340 l-329 -330 -36 21
c-19 12 -37 23 -39 25 -3 2 169 178 382 391 320 321 387 393 387 415 0 23 -3
26 -17 18 -10 -5 -193 -186 -408 -400 -214 -215 -393 -391 -397 -391 -4 0 -23
10 -43 21 l-37 22 451 451 c372 373 451 457 451 479 0 15 -3 27 -7 27 -4 0
-217 -210 -474 -466 l-466 -466 -41 23 -41 24 514 515 c426 427 515 520 515
543 0 15 -3 27 -7 27 -4 0 -247 -239 -539 -531 l-532 -531 -41 24 -41 25 58
54 c33 30 94 76 138 104 108 68 274 235 353 355 50 76 118 151 337 371 222
223 274 281 274 302 0 15 -3 27 -7 27 -4 0 -112 -104 -240 -232 -128 -128
-233 -230 -233 -228 0 3 11 38 25 78 14 41 25 79 25 85 0 6 97 108 215 227
172 173 215 222 215 243 0 15 -3 27 -7 27 -4 0 -95 -88 -203 -195 l-196 -196
9 73 9 73 194 196 c154 155 194 202 194 223 0 14 -3 26 -7 26 -4 0 -91 -84
-195 -187 l-188 -187 0 64 0 64 195 197 c155 155 195 202 195 223 0 14 -3 26
-7 26 -4 0 -91 -84 -195 -187 l-188 -187 0 64 0 64 195 197 c155 155 195 202
195 223 0 14 -3 26 -7 26 -4 0 -91 -84 -195 -187 l-188 -187 0 64 0 64 195
197 c155 155 195 202 195 223 0 14 -3 26 -7 26 -4 0 -91 -84 -195 -187 l-188
-187 0 64 0 64 195 197 c155 155 195 202 195 223 0 14 -3 26 -7 26 -4 0 -91
-84 -195 -187 l-188 -187 0 64 0 64 195 197 c155 155 195 202 195 223 0 14 -3
26 -7 26 -4 0 -91 -84 -195 -187 l-188 -187 0 64 0 64 195 197 c155 155 195
202 195 223 0 14 -3 26 -7 26 -4 0 -91 -84 -195 -187 l-188 -187 0 64 0 64
195 197 c155 155 195 202 195 223 0 14 -3 26 -7 26 -4 0 -91 -84 -195 -187
l-188 -187 0 64 0 64 195 197 c155 155 195 202 195 223 0 14 -3 26 -7 26 -4 0
-91 -84 -195 -187 l-188 -187 0 64 0 64 195 197 c156 157 195 201 195 223 0
22 -3 25 -17 17 -10 -5 -97 -89 -193 -185 -96 -97 -178 -176 -181 -176 -4 0
-9 24 -12 53 l-5 52 204 206 c162 164 204 211 204 232 0 15 -3 27 -7 27 -4 0
-98 -91 -210 -202 -130 -129 -204 -196 -207 -187 -2 8 -9 29 -15 48 l-11 35
225 226 c180 182 225 232 225 253 0 15 -3 27 -7 27 -4 0 -109 -102 -233 -226
l-227 -225 -18 46 -17 47 251 252 c202 204 251 258 251 279 0 15 -3 27 -7 27
-4 0 -123 -115 -264 -256 l-257 -257 -22 43 -22 43 286 286 c232 233 286 293
286 314 0 15 -3 27 -7 27 -4 0 -139 -131 -300 -292 -161 -161 -294 -290 -296
-287 -2 2 -14 19 -27 37 l-23 34 272 272 c149 149 271 275 271 279 0 4 -12 7
-27 7 -21 0 -77 -50 -287 -260 l-261 -260 -29 36 -28 36 216 217 c119 119 216
220 216 224 0 4 -12 7 -27 7 -21 0 -68 -42 -235 -207 l-208 -207 -32 32 -32
32 167 168 c92 93 167 171 167 175 0 4 -12 7 -26 7 -21 0 -62 -35 -188 -160
l-162 -160 -37 27 -37 27 125 126 c69 70 125 130 125 133 0 4 -12 7 -26 7 -19
0 -55 -29 -147 -119 l-122 -118 -30 18 c-16 11 -34 21 -40 23 -5 2 29 44 78
93 48 50 87 93 87 97 0 3 -11 6 -25 6 -18 0 -50 -23 -109 -80 -46 -44 -89 -80
-97 -80 -8 1 -29 9 -47 18 l-32 18 46 44 c25 25 50 53 55 63 8 14 6 17 -15 17
-16 0 -45 -19 -83 -53 l-58 -53 -48 14 -48 13 33 37 c32 37 32 37 9 40 -15 2
-38 -8 -63 -28 -37 -30 -43 -32 -94 -25 l-54 6 16 25 c16 23 15 24 -7 24 -13
0 -35 -9 -49 -20 -19 -15 -41 -20 -88 -20 -60 0 -62 1 -52 20 9 17 8 20 -12
20 -13 0 -34 -9 -48 -20 -19 -15 -41 -20 -88 -20 -60 0 -62 1 -52 20 9 17 8
20 -12 20 -13 0 -34 -9 -48 -20 -19 -15 -41 -20 -88 -20 -60 0 -62 1 -52 20 9
17 8 20 -12 20 -13 0 -34 -9 -48 -20 -19 -15 -41 -20 -88 -20 -60 0 -62 1 -52
20 9 17 8 20 -12 20 -13 0 -34 -9 -48 -20 -19 -15 -41 -20 -88 -20 -60 0 -62
1 -52 20 9 17 8 20 -12 20 -13 0 -34 -9 -48 -20 -19 -15 -41 -20 -88 -20 -60
0 -62 1 -52 20 9 17 8 20 -12 20 -13 0 -34 -9 -48 -20 -19 -15 -41 -20 -88
-20 -60 0 -62 1 -52 20 9 17 8 20 -12 20 -13 0 -34 -9 -48 -20 -19 -15 -41
-20 -88 -20 -60 0 -62 1 -52 20 9 17 8 20 -12 20 -13 0 -34 -9 -48 -20 -19
-15 -41 -20 -88 -20 -60 0 -62 1 -52 20 9 17 8 20 -12 20 -13 0 -34 -9 -48
-20 -19 -15 -41 -20 -88 -20 -60 0 -62 1 -52 20 9 17 8 20 -11 20 -12 0 -37
-11 -54 -25 -25 -19 -146 -55 -184 -55 -1 0 11 16 28 35 17 20 31 38 31 40 0
3 -11 5 -25 5 -16 0 -46 -20 -87 -59 -41 -38 -85 -68 -128 -86 -36 -15 -92
-43 -125 -62 l-60 -35 113 115 c61 62 112 117 112 120 0 4 -12 7 -27 7 -23 0
-122 -94 -581 -552z m553 -248 c-237 -237 -432 -425 -434 -419 -1 5 2 38 9 73
l12 63 341 341 342 341 75 15 c41 8 77 15 80 15 3 1 -189 -193 -425 -429z m95
-105 l-535 -535 -3 62 -3 62 473 473 473 473 65 0 65 0 -535 -535z m100 -100
l-635 -635 -3 62 -3 62 573 573 573 573 65 0 65 0 -635 -635z m100 -100 l-735
-735 -3 62 -3 62 673 673 673 673 65 0 65 0 -735 -735z m100 -100 l-835 -835
-3 62 -3 62 773 773 773 773 65 0 65 0 -835 -835z m100 -100 l-935 -935 -3 62
-3 62 873 873 873 873 65 0 65 0 -935 -935z m1045 845 c-83 -83 -93 -90 -129
-90 -22 0 -59 -9 -82 -21 -56 -27 -84 -72 -84 -135 l0 -49 -845 -845 -845
-845 0 65 0 65 972 972 973 973 65 0 65 0 -90 -90z m155 -45 l-134 -134 -32
32 -32 32 101 103 102 102 65 0 65 0 -135 -135z m-10 -210 c-190 -190 -354
-347 -365 -350 -11 -2 -45 -7 -75 -10 l-55 -6 100 100 c79 80 105 101 128 101
71 0 147 73 147 141 0 30 17 51 167 201 l168 168 65 0 65 0 -345 -345z m195
-5 l-351 -351 -58 7 -58 7 343 343 344 344 65 0 65 0 -350 -350z m522 342 c8
-5 -107 -127 -345 -365 l-358 -358 -52 13 -53 12 353 353 353 353 45 0 c25 0
50 -4 57 -8z m129 -23 c24 -6 44 -14 44 -18 0 -3 -163 -169 -363 -369 l-362
-362 -49 16 -48 17 363 363 c200 200 365 364 367 364 2 0 23 -5 48 -11z m152
-56 l44 -16 -373 -373 -372 -372 -44 21 -44 21 368 368 c202 202 370 368 373
368 2 0 24 -7 48 -17z m-2538 4 c0 -1 -115 -117 -255 -257 -213 -212 -253
-248 -239 -215 46 114 192 288 315 375 67 47 179 108 179 97z m2690 -92 c6 -7
-125 -145 -363 -383 l-372 -372 -38 27 -38 27 372 372 373 373 29 -17 c16 -9
32 -22 37 -27z m-255 -475 l-375 -375 -32 33 -33 32 375 375 374 375 34 -32
33 -32 -376 -376z m465 276 c0 -6 -168 -179 -373 -384 l-373 -373 -20 23 c-12
13 -25 29 -29 37 -5 9 102 123 366 387 l373 374 28 -27 c15 -15 28 -32 28 -37z
m76 -110 c5 -15 -71 -96 -368 -393 l-374 -374 -26 38 -25 38 376 378 376 377
17 -22 c10 -13 20 -31 24 -42z m-1846 34 c0 -6 13 -18 30 -28 l29 -18 -122
-121 c-106 -105 -129 -123 -177 -138 -30 -10 -77 -29 -105 -42 -46 -23 -34 -9
140 166 104 105 193 191 197 191 5 0 8 -5 8 -10z m1904 -151 l15 -35 -374
-374 -373 -373 -22 43 -22 43 373 373 c206 206 377 370 381 366 4 -4 14 -23
22 -43z m51 -155 l6 -39 -370 -369 c-238 -238 -372 -365 -375 -355 -2 7 -9 30
-15 49 l-11 34 372 373 c258 258 375 368 380 359 4 -7 10 -30 13 -52z m25
-167 l0 -52 -364 -364 -364 -364 -9 54 -10 54 365 367 c201 202 369 365 374
362 4 -3 8 -29 8 -57z m-1850 -100 c0 -1 -179 -181 -398 -400 l-398 -398 7 72
6 71 324 324 c306 306 325 323 363 327 64 6 96 7 96 4z m150 -13 c32 -7 31 -8
-441 -480 -261 -261 -477 -474 -481 -474 -3 0 -9 23 -13 51 l-7 52 428 428
c455 455 435 438 514 423z m1338 -501 l-363 -363 -3 62 -3 62 363 363 363 363
3 -62 3 -62 -363 -363z m-1728 474 c0 -1 -117 -119 -260 -262 -154 -154 -257
-249 -251 -233 77 206 253 392 450 474 61 25 61 25 61 21z m542 -21 l27 -12
-169 -169 c-169 -169 -170 -169 -230 -182 -33 -6 -75 -19 -93 -28 -19 -9 52
69 183 200 227 228 215 219 282 191z m148 -85 c0 -4 -67 -73 -148 -154 l-148
-147 -34 11 c-19 6 -42 13 -49 15 -10 3 40 60 144 164 l159 159 38 -21 c21
-12 38 -24 38 -27z m110 -91 c0 -3 -64 -69 -143 -148 l-143 -143 -36 28 -37
28 146 147 146 146 34 -26 c18 -15 33 -29 33 -32z m908 -497 c-210 -210 -383
-381 -384 -380 -1 1 6 37 15 80 l16 77 365 365 365 365 3 -62 3 -62 -383 -383z
m-2498 395 c-15 -35 -33 -82 -40 -104 -10 -35 -74 -103 -396 -425 l-384 -384
0 65 0 65 422 422 c233 233 424 423 425 423 1 0 -11 -28 -27 -62z m1680 -8 c0
-3 -67 -72 -149 -154 l-149 -149 -22 43 -22 43 144 144 143 144 28 -33 c15
-18 27 -35 27 -38z m55 -91 l19 -40 -170 -170 -169 -169 -7 57 -8 58 152 152
c84 84 156 153 159 153 3 0 14 -18 24 -41z m108 -1151 l-1038 -1038 -65 0 -65
0 395 396 c363 363 401 399 470 434 193 99 354 252 468 446 23 38 42 77 42 84
0 8 186 200 413 427 l412 413 3 -62 3 -62 -1038 -1038z m-49 1010 l13 -46
-472 -472 -473 -473 -52 13 -52 13 188 189 c152 152 202 196 257 225 75 40
135 100 168 171 15 33 80 106 212 239 105 106 192 191 194 189 2 -1 9 -23 17
-48z m-1881 -80 l-6 -66 -363 -363 -364 -364 0 65 0 65 367 367 c202 202 368
366 370 364 1 -1 0 -32 -4 -68z m767 10 c-10 -24 -21 -63 -25 -88 -6 -42 -19
-57 -173 -212 -92 -93 -170 -168 -174 -168 -3 0 -13 19 -21 43 l-15 42 212
213 c116 116 212 212 213 212 1 0 -6 -19 -17 -42z m1263 -1040 l-938 -938 -65
0 -65 0 1000 1000 1000 1000 3 -62 3 -62 -938 -938z m-507 495 l-391 -393 -57
0 c-32 0 -58 3 -58 7 0 5 199 207 443 451 l442 442 6 -57 6 -58 -391 -392z
m-1888 -90 l-363 -363 -3 62 -3 62 363 363 363 363 3 -62 3 -62 -363 -363z
m2495 -505 l-838 -838 -65 0 -65 0 900 900 900 900 3 -62 3 -62 -838 -838z
m-1512 688 l-149 -149 -25 39 -25 39 161 162 161 162 13 -51 14 -52 -150 -150z
m1273 133 l-16 -74 -252 -253 c-264 -266 -256 -259 -371 -281 l-48 -9 349 349
c191 191 350 347 351 345 2 -2 -4 -37 -13 -77z m-1870 -84 l7 -40 -370 -369
c-239 -239 -372 -365 -375 -355 -2 7 -7 32 -10 54 l-6 40 367 367 c233 233
370 363 374 355 4 -6 10 -30 13 -52z m801 19 l28 -36 -144 -144 -143 -144 -28
27 c-15 15 -28 31 -28 37 0 8 279 296 286 296 1 0 14 -16 29 -36z m1408 -856
l-738 -738 -65 0 -65 0 800 800 800 800 3 -62 3 -62 -738 -738z m-1263 742 c0
-3 -66 -72 -148 -153 l-147 -147 -38 27 -38 27 147 147 146 146 39 -21 c21
-11 39 -23 39 -26z m-900 -54 l12 -39 -373 -373 -374 -374 -16 47 -17 48 371
372 c204 205 374 369 378 365 4 -4 12 -24 19 -46z m1033 27 l39 -6 -168 -168
c-93 -93 -173 -169 -179 -169 -5 0 -25 9 -44 21 l-34 21 154 154 c97 97 161
154 174 154 11 0 37 -3 58 -7z m1230 -815 l-638 -638 -65 0 -65 0 700 700 700
700 3 -62 3 -62 -638 -638z m-2554 246 c-206 -206 -377 -374 -380 -374 -3 0
-14 18 -24 41 l-19 40 374 374 374 374 24 -41 25 -40 -374 -374z m427 290 l27
-35 -374 -375 c-206 -206 -376 -374 -379 -374 -3 0 -16 16 -29 36 l-25 35 375
375 c206 206 375 374 376 374 1 0 14 -16 29 -36z m2227 -636 l-538 -538 -65 0
-65 0 600 600 600 600 3 -62 3 -62 -538 -538z m-2113 498 c0 -6 -168 -178
-372 -383 l-372 -373 -33 32 -33 32 377 378 377 378 28 -27 c15 -15 28 -32 28
-37z m109 -96 c1 -3 -167 -173 -372 -378 l-372 -372 -35 29 -35 30 374 375
375 375 32 -27 c18 -15 33 -29 33 -32z m2109 -497 l-433 -433 -70 -6 -70 -6
500 501 500 501 3 -62 3 -62 -433 -433z m-2014 434 l28 -20 -368 -368 c-203
-203 -372 -369 -376 -369 -4 0 -23 10 -43 22 l-37 21 373 373 c205 205 378
370 383 367 6 -4 24 -15 40 -26z m121 -64 c19 -9 35 -19 35 -22 0 -4 -163
-169 -363 -369 l-362 -362 -49 16 -48 17 368 368 c203 203 372 369 376 369 4
0 23 -8 43 -17z m2299 -60 c-4 -16 -16 -55 -26 -88 -19 -57 -34 -74 -277 -318
-268 -270 -281 -281 -398 -311 l-57 -15 379 379 c209 209 381 380 383 380 1 0
-1 -12 -4 -27z m-2141 1 c15 -4 27 -9 27 -13 0 -3 -161 -167 -357 -363 l-358
-357 -45 9 c-25 5 -49 9 -55 10 -5 0 154 164 355 365 293 293 369 365 385 360
11 -3 32 -8 48 -11z m267 -379 l-375 -375 -65 0 -65 0 359 359 358 358 67 15
c36 9 73 16 81 17 8 0 -154 -168 -360 -374z m-81 339 c10 -3 -111 -131 -340
-360 l-354 -355 -45 6 c-25 4 -49 9 -54 12 -4 3 151 165 345 359 l353 354 41
-6 c22 -3 47 -8 54 -10z m-139 -359 l-355 -355 -65 0 -65 0 355 355 355 355
65 0 65 0 -355 -355z m-1198 -536 l41 -21 -69 -68 c-52 -52 -105 -90 -219
-155 l-150 -86 175 176 c96 96 176 175 178 175 1 0 21 -9 44 -21z m528 -334
l-195 -195 -65 0 -65 0 170 171 c182 183 231 218 305 219 l45 0 -195 -195z
m200 0 l-195 -195 -65 0 -65 0 195 195 195 195 65 0 65 0 -195 -195z m200 0
l-195 -195 -65 0 -65 0 195 195 195 195 65 0 65 0 -195 -195z m200 0 l-195
-195 -65 0 -65 0 195 195 195 195 65 0 65 0 -195 -195z m200 0 l-195 -195 -65
0 -65 0 195 195 195 195 65 0 65 0 -195 -195z m200 0 l-195 -195 -65 0 -65 0
195 195 195 195 65 0 65 0 -195 -195z m200 0 l-195 -195 -65 0 -65 0 195 195
195 195 65 0 65 0 -195 -195z m200 0 l-195 -195 -65 0 -65 0 195 195 195 195
65 0 65 0 -195 -195z m200 0 l-195 -195 -65 0 -65 0 195 195 195 195 65 0 65
0 -195 -195z m282 144 l41 -21 -159 -159 -159 -159 -65 0 -65 0 180 180 c99
99 181 180 183 180 1 0 21 -9 44 -21z m130 -70 l41 -21 -124 -124 -124 -124
-65 0 -65 0 145 145 c80 80 146 145 148 145 1 0 21 -9 44 -21z m-2272 -134
l-135 -135 -65 0 -64 0 59 60 c45 45 95 80 195 135 74 41 137 74 140 75 3 0
-56 -61 -130 -135z m2405 64 l37 -22 -88 -88 -89 -89 -65 0 -65 0 110 110 c60
61 113 110 117 110 4 0 23 -10 43 -21z m127 -70 l41 -21 -54 -54 -53 -54 -65
0 -65 0 74 75 c41 41 76 75 78 75 1 0 21 -9 44 -21z"/>
<path d="M4996 150 c-136 -133 -149 -150 -111 -150 18 0 49 23 111 82 102 98
127 130 122 161 -3 19 -19 7 -122 -93z"/>
</g>
</svg>
